{
    "asset" : {
        "generator" : "Khronos glTF Blender I/O v3.4.50",
        "version" : "2.0"
    },
    "scene" : 0,
    "scenes" : [
        {
            "name" : "Scene",
            "nodes" : [
                0
            ]
        }
    ],
    "nodes" : [
        {
            "mesh" : 0,
            "name" : "vintage_asian_dress_belt_grp"
        }
    ],
    "materials" : [
        {
            "doubleSided" : true,
            "name" : "vintage_asian_dress_belt_mat.001",
            "normalTexture" : {
                "index" : 0
            },
            "pbrMetallicRoughness" : {
                "baseColorTexture" : {
                    "index" : 1
                },
                "metallicRoughnessTexture" : {
                    "index" : 2
                }
            }
        }
    ],
    "meshes" : [
        {
            "name" : "Mesh",
            "primitives" : [
                {
                    "attributes" : {
                        "POSITION" : 0,
                        "TEXCOORD_0" : 1,
                        "NORMAL" : 2
                    },
                    "indices" : 3,
                    "material" : 0
                }
            ]
        }
    ],
    "textures" : [
        {
            "sampler" : 0,
            "source" : 0
        },
        {
            "sampler" : 0,
            "source" : 1
        },
        {
            "sampler" : 0,
            "source" : 2
        }
    ],
    "images" : [
        {
            "mimeType" : "image/png",
            "name" : "Vintage_Asian_Dress_Belt_norm",
            "uri" : "Vintage_Asian_Dress_Belt_norm.png"
        },
        {
            "mimeType" : "image/png",
            "name" : "Vintage_Asian_Dress_Belt_bcolor",
            "uri" : "Vintage_Asian_Dress_Belt_bcolor.png"
        },
        {
            "mimeType" : "image/png",
            "name" : "Vintage_Asian_Dress_Belt_metal-Vintage_Asian_Dress_Belt_rough",
            "uri" : "Vintage_Asian_Dress_Belt_metal-Vintage_Asian_Dress_Belt_rough.png"
        }
    ],
    "accessors" : [
        {
            "bufferView" : 0,
            "componentType" : 5126,
            "count" : 106712,
            "max" : [
                53.447105407714844,
                148.12847900390625,
                15.309247970581055
            ],
            "min" : [
                -53.447120666503906,
                -2.193450927734375e-05,
                -15.309226989746094
            ],
            "type" : "VEC3"
        },
        {
            "bufferView" : 1,
            "componentType" : 5126,
            "count" : 106712,
            "type" : "VEC2"
        },
        {
            "bufferView" : 2,
            "componentType" : 5126,
            "count" : 106712,
            "type" : "VEC3"
        },
        {
            "bufferView" : 3,
            "componentType" : 5125,
            "count" : 160032,
            "type" : "SCALAR"
        }
    ],
    "bufferViews" : [
        {
            "buffer" : 0,
            "byteLength" : 1280544,
            "byteOffset" : 0,
            "target" : 34962
        },
        {
            "buffer" : 0,
            "byteLength" : 853696,
            "byteOffset" : 1280544,
            "target" : 34962
        },
        {
            "buffer" : 0,
            "byteLength" : 1280544,
            "byteOffset" : 2134240,
            "target" : 34962
        },
        {
            "buffer" : 0,
            "byteLength" : 640128,
            "byteOffset" : 3414784,
            "target" : 34963
        }
    ],
    "samplers" : [
        {
            "magFilter" : 9729,
            "minFilter" : 9987
        }
    ],
    "buffers" : [
        {
            "byteLength" : 4054912,
            "uri" : "Vintage Asian Dress Belt.bin"
        }
    ]
}
